# xmcd
#
# Track frame offsets:
#   150
#   15167
#   29891
#   42194
#   54907
#   69814
#   83359
#   96524
#   108592
#   121799
#   133575
#   151549
#   164867
#   177130
#   190067
#   202190
#   220926
#   234139
#   252413
#   264708
#   276049
#   285085
#
# Disc length: 3921 seconds
#
# Revision: 0
# Processed by: cddbd v1.5.1PL2 Copyright (c) Steve Scherf et al.
# Submitted via: GXTranscoder 2.0.1939
#
DISCID=260f4f16
DTITLE=bellamy brothersare - Country Legends
DYEAR=1975
DGENRE=Country
TTITLE0=love in the first degree
TTITLE1=rhinstone cowboy
TTITLE2=500 miles away from home
TTITLE3=let your love flow
TTITLE4=he stopped lovin her today
TTITLE5=good hearted woman
TTITLE6=i will always love you
TTITLE7=you can depend on me
TTITLE8=one good well
TTITLE9=the most beautiful girl
TTITLE10=maybe it was memphis
TTITLE11=top of the world
TTITLE12=the time i get to phoenix
TTITLE13=rose garden
TTITLE14=stand by your man
TTITLE15=beggars and heroes
TTITLE16=rub, don't take your love
TTITLE17=my home's in alabama
TTITLE18=i'll hould you in my love
TTITLE19=on the road again
TTITLE20=honky tonk blues
TTITLE21=kiss an angel good morning
EXTD=
EXTT0=
EXTT1=
EXTT2=
EXTT3=
EXTT4=
EXTT5=
EXTT6=
EXTT7=
EXTT8=
EXTT9=
EXTT10=
EXTT11=
EXTT12=
EXTT13=
EXTT14=
EXTT15=
EXTT16=
EXTT17=
EXTT18=
EXTT19=
EXTT20=
EXTT21=
PLAYORDER=
